<svg xmlns="http://www.w3.org/2000/svg" viewBox="0 0 512 512" width="512" height="512">
  <title>Coachwise</title>
  <!-- The mark, flat navy — for <img>/og use where currentColor cannot resolve. -->
  <g transform="translate(-75.896 -86.172) scale(0.557)">
    <path fill="#0E0E55" d="M 601.500 213.603 C 544.102 219.323, 503.557 230.255, 457.500 252.429 C 413.197 273.759, 382.380 295.537, 348.487 329.470 C 288.770 389.258, 250.436 468.146, 238.411 556 C 236.229 571.939, 235.422 616.044, 236.969 634.747 C 241.998 695.534, 262.467 755.802, 294.285 803.500 C 300.216 812.392, 312.958 830, 313.461 830 C 313.604 830, 309.136 820.880, 303.533 809.732 C 272.011 747.018, 259.122 692.110, 260.285 625.500 C 260.776 597.417, 261.910 585.962, 266.623 561.500 C 279.106 496.712, 308.544 434.670, 351.187 383.279 C 406.956 316.069, 491.876 267.922, 579 254.117 C 609.846 249.229, 657.724 250.271, 688.513 256.501 C 777.630 274.530, 842.917 312.446, 898.583 378.500 C 937.529 424.714, 968.535 485.605, 982.884 544.053 C 994.580 591.695, 996.652 642.536, 988.893 691.500 C 982.358 732.739, 962.702 789.372, 943.630 821.913 C 941.588 825.398, 940.101 828.435, 940.327 828.660 C 940.900 829.233, 955.646 809.263, 962.228 799 C 987.934 758.920, 1007.002 706.753, 1013.400 659 C 1016.510 635.784, 1017.268 620.941, 1016.688 594.549 C 1015.960 561.390, 1013.549 543.275, 1005.502 510.500 C 977.426 396.150, 900.717 300.453, 798.070 251.718 C 758.228 232.802, 721.592 221.981, 677 215.959 C 662.178 213.957, 613.265 212.431, 601.500 213.603 M 643 676.298 C 500.957 817.464, 396.409 898.119, 259 972.540 C 251.025 976.860, 228.300 988.616, 208.500 998.666 C 188.700 1008.717, 173.144 1016.953, 173.931 1016.970 C 176.775 1017.030, 207.922 1010.762, 226.500 1006.391 C 287.303 992.085, 342.632 972.334, 411 940.530 C 435.543 929.112, 469.154 911.273, 493.024 896.993 C 537.097 870.629, 584.520 834.903, 624.500 797.946 C 640.373 783.273, 664.179 760.824, 675.500 749.852 C 685.449 740.211, 686.691 739.310, 688.500 740.423 C 689.600 741.100, 693.425 743.383, 697 745.496 C 710.067 753.219, 751.893 781.713, 786.305 806.334 C 888.982 879.799, 992.275 951.929, 990.470 948.903 C 988.402 945.436, 971.510 927.160, 936.026 890 C 908.459 861.131, 685.190 635.987, 684.166 636.024 C 683.800 636.038, 665.275 654.161, 643 676.298 M 678.936 826.315 C 626.771 874.983, 575.690 916.480, 522.500 953.400 C 513.150 959.890, 504.851 965.820, 504.058 966.578 C 500.259 970.207, 540.843 955.252, 571.970 941.552 C 609.409 925.075, 667.268 892.368, 692.713 873.298 C 696.968 870.109, 701.028 867.137, 701.736 866.694 C 702.552 866.183, 707.125 868.233, 714.261 872.312 C 739.374 886.667, 751.718 893.443, 787 912.246 C 806.029 922.388, 848.743 943.377, 867.802 951.953 C 904.134 968.301, 951.136 987.438, 994.500 1003.539 C 1003.850 1007.011, 1012.737 1010.323, 1014.250 1010.901 C 1019.392 1012.864, 1017.021 1011.125, 1006.750 1005.399 C 946.562 971.848, 910.520 950.126, 849.500 910.622 C 811.658 886.124, 739.365 836.061, 709.605 813.746 C 705.262 810.490, 701.212 807.669, 700.605 807.478 C 699.997 807.286, 690.246 815.763, 678.936 826.315 M 541.272 381.437 C 516.989 387.321, 499.014 412.434, 501.503 437 C 504.365 465.251, 526.121 485.271, 554 485.309 C 589.161 485.356, 613.305 452.924, 604.167 417.919 C 599.793 401.163, 584.456 385.958, 567.465 381.533 C 560.483 379.714, 548.562 379.670, 541.272 381.437 M 704 469.663 C 646.888 472.689, 588.090 494.107, 539.276 529.668 C 522.228 542.087, 512.360 550.591, 495.985 566.976 C 429.813 633.188, 387.400 721.600, 383.174 802.139 C 382.471 815.543, 383.231 844.770, 384.527 854.198 L 385.224 859.263 390.953 845.284 C 410.755 796.963, 446.923 737.246, 485.150 689.752 C 522.601 643.223, 566.752 601.404, 611.297 570.269 C 661.177 535.406, 714.062 512.442, 764.031 503.950 C 778.951 501.415, 815.681 500.248, 832 501.792 C 837.775 502.338, 842.627 502.669, 842.783 502.526 C 843.921 501.485, 820.376 489.687, 808 485.097 C 778.704 474.233, 736.360 467.949, 704 469.663"/>
  </g>
</svg>
